solid OpenSCAD_Model
  facet normal -1 0 0
    outer loop
      vertex -14.5 0 0
      vertex -14.5 5 3
      vertex -14.5 5 0
    endloop
  endfacet
  facet normal -1 -0 0
    outer loop
      vertex -14.5 5 3
      vertex -14.5 0 0
      vertex -14.5 0 3
    endloop
  endfacet
  facet normal 0 0 1
    outer loop
      vertex -7.5 5 3
      vertex -9.5 2.5 3
      vertex -7.5 0 3
    endloop
  endfacet
  facet normal 0 0 1
    outer loop
      vertex -7.5 5 3
      vertex -9.57341 2.96352 3
      vertex -9.5 2.5 3
    endloop
  endfacet
  facet normal 0 0 1
    outer loop
      vertex -7.5 5 3
      vertex -9.78647 3.38168 3
      vertex -9.57341 2.96352 3
    endloop
  endfacet
  facet normal 0 0 1
    outer loop
      vertex -7.5 5 3
      vertex -10.1183 3.71352 3
      vertex -9.78647 3.38168 3
    endloop
  endfacet
  facet normal 0 0 1
    outer loop
      vertex -7.5 5 3
      vertex -10.5365 3.92658 3
      vertex -10.1183 3.71352 3
    endloop
  endfacet
  facet normal 0 0 1
    outer loop
      vertex -7.5 5 3
      vertex -11 4 3
      vertex -10.5365 3.92658 3
    endloop
  endfacet
  facet normal -0 0 1
    outer loop
      vertex -14.5 5 3
      vertex -11 4 3
      vertex -7.5 5 3
    endloop
  endfacet
  facet normal 0 0 1
    outer loop
      vertex -12.4266 2.96352 3
      vertex -14.5 5 3
      vertex -12.5 2.5 3
    endloop
  endfacet
  facet normal 0 0 1
    outer loop
      vertex -12.2135 3.38168 3
      vertex -14.5 5 3
      vertex -12.4266 2.96352 3
    endloop
  endfacet
  facet normal 0 0 1
    outer loop
      vertex -11.8817 3.71352 3
      vertex -14.5 5 3
      vertex -12.2135 3.38168 3
    endloop
  endfacet
  facet normal 0 0 1
    outer loop
      vertex -11.4635 3.92658 3
      vertex -14.5 5 3
      vertex -11.8817 3.71352 3
    endloop
  endfacet
  facet normal 0 0 1
    outer loop
      vertex -11 4 3
      vertex -14.5 5 3
      vertex -11.4635 3.92658 3
    endloop
  endfacet
  facet normal -0 0 1
    outer loop
      vertex -9.57341 2.03647 3
      vertex -7.5 0 3
      vertex -9.5 2.5 3
    endloop
  endfacet
  facet normal -0 0 1
    outer loop
      vertex -9.78647 1.61832 3
      vertex -7.5 0 3
      vertex -9.57341 2.03647 3
    endloop
  endfacet
  facet normal -0 0 1
    outer loop
      vertex -10.1183 1.28647 3
      vertex -7.5 0 3
      vertex -9.78647 1.61832 3
    endloop
  endfacet
  facet normal -0 0 1
    outer loop
      vertex -10.5365 1.07341 3
      vertex -7.5 0 3
      vertex -10.1183 1.28647 3
    endloop
  endfacet
  facet normal -0 0 1
    outer loop
      vertex -11 1 3
      vertex -7.5 0 3
      vertex -10.5365 1.07341 3
    endloop
  endfacet
  facet normal 0 0 1
    outer loop
      vertex -14.5 0 3
      vertex -11 1 3
      vertex -11.4635 1.07341 3
    endloop
  endfacet
  facet normal 0 0 1
    outer loop
      vertex -14.5 0 3
      vertex -12.5 2.5 3
      vertex -14.5 5 3
    endloop
  endfacet
  facet normal 0 0 1
    outer loop
      vertex -12.5 2.5 3
      vertex -14.5 0 3
      vertex -12.4266 2.03647 3
    endloop
  endfacet
  facet normal 0 0 1
    outer loop
      vertex -11 1 3
      vertex -14.5 0 3
      vertex -7.5 0 3
    endloop
  endfacet
  facet normal 0 0 1
    outer loop
      vertex -11.8817 1.28647 3
      vertex -14.5 0 3
      vertex -11.4635 1.07341 3
    endloop
  endfacet
  facet normal 0 0 1
    outer loop
      vertex -12.2135 1.61832 3
      vertex -14.5 0 3
      vertex -11.8817 1.28647 3
    endloop
  endfacet
  facet normal 0 0 1
    outer loop
      vertex -12.4266 2.03647 3
      vertex -14.5 0 3
      vertex -12.2135 1.61832 3
    endloop
  endfacet
  facet normal 0 0 1
    outer loop
      vertex 14.5 5 3
      vertex 12.5 2.5 3
      vertex 14.5 0 3
    endloop
  endfacet
  facet normal 0 0 1
    outer loop
      vertex 14.5 5 3
      vertex 12.4266 2.96352 3
      vertex 12.5 2.5 3
    endloop
  endfacet
  facet normal 0 0 1
    outer loop
      vertex 14.5 5 3
      vertex 12.2135 3.38168 3
      vertex 12.4266 2.96352 3
    endloop
  endfacet
  facet normal 0 0 1
    outer loop
      vertex 14.5 5 3
      vertex 11.8817 3.71352 3
      vertex 12.2135 3.38168 3
    endloop
  endfacet
  facet normal 0 0 1
    outer loop
      vertex 14.5 5 3
      vertex 11.4635 3.92658 3
      vertex 11.8817 3.71352 3
    endloop
  endfacet
  facet normal 0 0 1
    outer loop
      vertex 14.5 5 3
      vertex 11 4 3
      vertex 11.4635 3.92658 3
    endloop
  endfacet
  facet normal -0 0 1
    outer loop
      vertex 7.5 5 3
      vertex 11 4 3
      vertex 14.5 5 3
    endloop
  endfacet
  facet normal 0 0 1
    outer loop
      vertex 9.57341 2.96352 3
      vertex 7.5 5 3
      vertex 9.5 2.5 3
    endloop
  endfacet
  facet normal 0 0 1
    outer loop
      vertex 9.78647 3.38168 3
      vertex 7.5 5 3
      vertex 9.57341 2.96352 3
    endloop
  endfacet
  facet normal 0 0 1
    outer loop
      vertex 10.1183 3.71352 3
      vertex 7.5 5 3
      vertex 9.78647 3.38168 3
    endloop
  endfacet
  facet normal 0 0 1
    outer loop
      vertex 10.5365 3.92658 3
      vertex 7.5 5 3
      vertex 10.1183 3.71352 3
    endloop
  endfacet
  facet normal 0 0 1
    outer loop
      vertex 11 4 3
      vertex 7.5 5 3
      vertex 10.5365 3.92658 3
    endloop
  endfacet
  facet normal -0 0 1
    outer loop
      vertex 12.4266 2.03647 3
      vertex 14.5 0 3
      vertex 12.5 2.5 3
    endloop
  endfacet
  facet normal -0 0 1
    outer loop
      vertex 12.2135 1.61832 3
      vertex 14.5 0 3
      vertex 12.4266 2.03647 3
    endloop
  endfacet
  facet normal -0 0 1
    outer loop
      vertex 11.8817 1.28647 3
      vertex 14.5 0 3
      vertex 12.2135 1.61832 3
    endloop
  endfacet
  facet normal -0 0 1
    outer loop
      vertex 11.4635 1.07341 3
      vertex 14.5 0 3
      vertex 11.8817 1.28647 3
    endloop
  endfacet
  facet normal -0 0 1
    outer loop
      vertex 11 1 3
      vertex 14.5 0 3
      vertex 11.4635 1.07341 3
    endloop
  endfacet
  facet normal 0 0 1
    outer loop
      vertex 7.5 0 3
      vertex 11 1 3
      vertex 10.5365 1.07341 3
    endloop
  endfacet
  facet normal 0 0 1
    outer loop
      vertex 7.5 0 3
      vertex 9.5 2.5 3
      vertex 7.5 5 3
    endloop
  endfacet
  facet normal 0 0 1
    outer loop
      vertex 9.5 2.5 3
      vertex 7.5 0 3
      vertex 9.57341 2.03647 3
    endloop
  endfacet
  facet normal 0 0 1
    outer loop
      vertex 11 1 3
      vertex 7.5 0 3
      vertex 14.5 0 3
    endloop
  endfacet
  facet normal 0 0 1
    outer loop
      vertex 10.1183 1.28647 3
      vertex 7.5 0 3
      vertex 10.5365 1.07341 3
    endloop
  endfacet
  facet normal 0 0 1
    outer loop
      vertex 9.78647 1.61832 3
      vertex 7.5 0 3
      vertex 10.1183 1.28647 3
    endloop
  endfacet
  facet normal 0 0 1
    outer loop
      vertex 9.57341 2.03647 3
      vertex 7.5 0 3
      vertex 9.78647 1.61832 3
    endloop
  endfacet
  facet normal 1 -0 0
    outer loop
      vertex 14.5 0 3
      vertex 14.5 5 0
      vertex 14.5 5 3
    endloop
  endfacet
  facet normal 1 0 0
    outer loop
      vertex 14.5 5 0
      vertex 14.5 0 3
      vertex 14.5 0 0
    endloop
  endfacet
  facet normal 0 1 -0
    outer loop
      vertex 14.5 5 0
      vertex 7.5 5 3
      vertex 14.5 5 3
    endloop
  endfacet
  facet normal 0 1 0
    outer loop
      vertex 7.5 5 3
      vertex 14.5 5 0
      vertex -7.5 5 3
    endloop
  endfacet
  facet normal 0 1 0
    outer loop
      vertex -14.5 5 0
      vertex -7.5 5 3
      vertex 14.5 5 0
    endloop
  endfacet
  facet normal 0 1 0
    outer loop
      vertex -7.5 5 3
      vertex -14.5 5 0
      vertex -14.5 5 3
    endloop
  endfacet
  facet normal 0 1 0
    outer loop
      vertex 7.5 5 55
      vertex 0 5 42
      vertex -7.5 5 55
    endloop
  endfacet
  facet normal 0 1 0
    outer loop
      vertex 7.5 5 55
      vertex 0.772542 5 41.8776
      vertex 0 5 42
    endloop
  endfacet
  facet normal 0 1 0
    outer loop
      vertex 7.5 5 55
      vertex 1.46946 5 41.5225
      vertex 0.772542 5 41.8776
    endloop
  endfacet
  facet normal 0 1 0
    outer loop
      vertex 7.5 5 55
      vertex 2.02254 5 40.9695
      vertex 1.46946 5 41.5225
    endloop
  endfacet
  facet normal 0 1 0
    outer loop
      vertex 7.5 5 55
      vertex 2.37764 5 40.2725
      vertex 2.02254 5 40.9695
    endloop
  endfacet
  facet normal 0 1 0
    outer loop
      vertex 7.5 5 55
      vertex 2.5 5 39.5
      vertex 2.37764 5 40.2725
    endloop
  endfacet
  facet normal 0 1 0
    outer loop
      vertex 7.5 5 55
      vertex 2.37764 5 38.7275
      vertex 2.5 5 39.5
    endloop
  endfacet
  facet normal 0 1 0
    outer loop
      vertex 0.772542 5 37.1224
      vertex 7.5 5 3
      vertex 0 5 37
    endloop
  endfacet
  facet normal 0 1 0
    outer loop
      vertex 1.46946 5 37.4775
      vertex 7.5 5 3
      vertex 0.772542 5 37.1224
    endloop
  endfacet
  facet normal 0 1 0
    outer loop
      vertex 2.02254 5 38.0305
      vertex 7.5 5 3
      vertex 1.46946 5 37.4775
    endloop
  endfacet
  facet normal 0 1 0
    outer loop
      vertex 2.37764 5 38.7275
      vertex 7.5 5 3
      vertex 2.02254 5 38.0305
    endloop
  endfacet
  facet normal 0 1 -0
    outer loop
      vertex 7.5 5 3
      vertex 2.37764 5 38.7275
      vertex 7.5 5 55
    endloop
  endfacet
  facet normal 0 1 -0
    outer loop
      vertex -0.772542 5 41.8776
      vertex -7.5 5 55
      vertex 0 5 42
    endloop
  endfacet
  facet normal 0 1 -0
    outer loop
      vertex -1.46946 5 41.5225
      vertex -7.5 5 55
      vertex -0.772542 5 41.8776
    endloop
  endfacet
  facet normal 0 1 -0
    outer loop
      vertex -2.02254 5 40.9695
      vertex -7.5 5 55
      vertex -1.46946 5 41.5225
    endloop
  endfacet
  facet normal 0 1 -0
    outer loop
      vertex -2.37764 5 40.2725
      vertex -7.5 5 55
      vertex -2.02254 5 40.9695
    endloop
  endfacet
  facet normal 0 1 -0
    outer loop
      vertex -2.5 5 39.5
      vertex -7.5 5 55
      vertex -2.37764 5 40.2725
    endloop
  endfacet
  facet normal 0 1 0
    outer loop
      vertex -2.37764 5 38.7275
      vertex -7.5 5 55
      vertex -2.5 5 39.5
    endloop
  endfacet
  facet normal 0 1 0
    outer loop
      vertex -7.5 5 3
      vertex 0 5 37
      vertex 7.5 5 3
    endloop
  endfacet
  facet normal 0 1 0
    outer loop
      vertex 0 5 37
      vertex -7.5 5 3
      vertex -0.772542 5 37.1224
    endloop
  endfacet
  facet normal 0 1 0
    outer loop
      vertex -0.772542 5 37.1224
      vertex -7.5 5 3
      vertex -1.46946 5 37.4775
    endloop
  endfacet
  facet normal 0 1 0
    outer loop
      vertex -1.46946 5 37.4775
      vertex -7.5 5 3
      vertex -2.02254 5 38.0305
    endloop
  endfacet
  facet normal 0 1 0
    outer loop
      vertex -2.02254 5 38.0305
      vertex -7.5 5 3
      vertex -2.37764 5 38.7275
    endloop
  endfacet
  facet normal 0 1 0
    outer loop
      vertex -2.37764 5 38.7275
      vertex -7.5 5 3
      vertex -7.5 5 55
    endloop
  endfacet
  facet normal 0 0 -1
    outer loop
      vertex 14.5 0 0
      vertex 12.5 2.5 0
      vertex 14.5 5 0
    endloop
  endfacet
  facet normal 0 0 -1
    outer loop
      vertex 14.5 0 0
      vertex 12.4266 2.03647 0
      vertex 12.5 2.5 0
    endloop
  endfacet
  facet normal 0 0 -1
    outer loop
      vertex 14.5 0 0
      vertex 12.2135 1.61832 0
      vertex 12.4266 2.03647 0
    endloop
  endfacet
  facet normal 0 0 -1
    outer loop
      vertex 14.5 0 0
      vertex 11.8817 1.28647 0
      vertex 12.2135 1.61832 0
    endloop
  endfacet
  facet normal 0 0 -1
    outer loop
      vertex 14.5 0 0
      vertex 11.4635 1.07341 0
      vertex 11.8817 1.28647 0
    endloop
  endfacet
  facet normal 0 0 -1
    outer loop
      vertex 14.5 0 0
      vertex 11 1 0
      vertex 11.4635 1.07341 0
    endloop
  endfacet
  facet normal 0 0 -1
    outer loop
      vertex 14.5 0 0
      vertex 10.5365 1.07341 0
      vertex 11 1 0
    endloop
  endfacet
  facet normal 0 0 -1
    outer loop
      vertex 9.57341 2.03647 0
      vertex -9.5 2.5 0
      vertex 9.5 2.5 0
    endloop
  endfacet
  facet normal 0 0 -1
    outer loop
      vertex -9.57341 2.03647 0
      vertex 9.57341 2.03647 0
      vertex 9.78647 1.61832 0
    endloop
  endfacet
  facet normal 0 0 -1
    outer loop
      vertex -9.78647 1.61832 0
      vertex 9.78647 1.61832 0
      vertex 10.1183 1.28647 0
    endloop
  endfacet
  facet normal 0 0 -1
    outer loop
      vertex -10.1183 1.28647 0
      vertex 10.1183 1.28647 0
      vertex 10.5365 1.07341 0
    endloop
  endfacet
  facet normal 0 0 -1
    outer loop
      vertex -10.5365 1.07341 0
      vertex 10.5365 1.07341 0
      vertex 14.5 0 0
    endloop
  endfacet
  facet normal 0 0 -1
    outer loop
      vertex 9.57341 2.03647 0
      vertex -9.57341 2.03647 0
      vertex -9.5 2.5 0
    endloop
  endfacet
  facet normal 0 0 -1
    outer loop
      vertex 9.78647 1.61832 0
      vertex -9.78647 1.61832 0
      vertex -9.57341 2.03647 0
    endloop
  endfacet
  facet normal 0 0 -1
    outer loop
      vertex 10.1183 1.28647 0
      vertex -10.1183 1.28647 0
      vertex -9.78647 1.61832 0
    endloop
  endfacet
  facet normal 0 0 -1
    outer loop
      vertex 10.5365 1.07341 0
      vertex -10.5365 1.07341 0
      vertex -10.1183 1.28647 0
    endloop
  endfacet
  facet normal 0 0 -1
    outer loop
      vertex -14.5 0 0
      vertex -10.5365 1.07341 0
      vertex 14.5 0 0
    endloop
  endfacet
  facet normal -0 0 -1
    outer loop
      vertex -12.4266 2.03647 0
      vertex -14.5 0 0
      vertex -12.5 2.5 0
    endloop
  endfacet
  facet normal -0 0 -1
    outer loop
      vertex -12.2135 1.61832 0
      vertex -14.5 0 0
      vertex -12.4266 2.03647 0
    endloop
  endfacet
  facet normal -0 0 -1
    outer loop
      vertex -11.8817 1.28647 0
      vertex -14.5 0 0
      vertex -12.2135 1.61832 0
    endloop
  endfacet
  facet normal -0 0 -1
    outer loop
      vertex -11.4635 1.07341 0
      vertex -14.5 0 0
      vertex -11.8817 1.28647 0
    endloop
  endfacet
  facet normal -0 0 -1
    outer loop
      vertex -11 1 0
      vertex -14.5 0 0
      vertex -11.4635 1.07341 0
    endloop
  endfacet
  facet normal 0 0 -1
    outer loop
      vertex -10.5365 1.07341 0
      vertex -14.5 0 0
      vertex -11 1 0
    endloop
  endfacet
  facet normal 0 0 -1
    outer loop
      vertex 12.4266 2.96352 0
      vertex 14.5 5 0
      vertex 12.5 2.5 0
    endloop
  endfacet
  facet normal 0 0 -1
    outer loop
      vertex 12.2135 3.38168 0
      vertex 14.5 5 0
      vertex 12.4266 2.96352 0
    endloop
  endfacet
  facet normal 0 0 -1
    outer loop
      vertex 11.8817 3.71352 0
      vertex 14.5 5 0
      vertex 12.2135 3.38168 0
    endloop
  endfacet
  facet normal 0 0 -1
    outer loop
      vertex 11.4635 3.92658 0
      vertex 14.5 5 0
      vertex 11.8817 3.71352 0
    endloop
  endfacet
  facet normal 0 0 -1
    outer loop
      vertex 11 4 0
      vertex 14.5 5 0
      vertex 11.4635 3.92658 0
    endloop
  endfacet
  facet normal 0 0 -1
    outer loop
      vertex 10.5365 3.92658 0
      vertex 14.5 5 0
      vertex 11 4 0
    endloop
  endfacet
  facet normal 0 0 -1
    outer loop
      vertex -9.5 2.5 0
      vertex 9.57341 2.96352 0
      vertex 9.5 2.5 0
    endloop
  endfacet
  facet normal 0 0 -1
    outer loop
      vertex -9.57341 2.96352 0
      vertex 9.57341 2.96352 0
      vertex -9.5 2.5 0
    endloop
  endfacet
  facet normal 0 0 -1
    outer loop
      vertex 9.57341 2.96352 0
      vertex -9.57341 2.96352 0
      vertex 9.78647 3.38168 0
    endloop
  endfacet
  facet normal 0 0 -1
    outer loop
      vertex -9.78647 3.38168 0
      vertex 9.78647 3.38168 0
      vertex -9.57341 2.96352 0
    endloop
  endfacet
  facet normal 0 0 -1
    outer loop
      vertex 9.78647 3.38168 0
      vertex -9.78647 3.38168 0
      vertex 10.1183 3.71352 0
    endloop
  endfacet
  facet normal 0 0 -1
    outer loop
      vertex -10.1183 3.71352 0
      vertex 10.1183 3.71352 0
      vertex -9.78647 3.38168 0
    endloop
  endfacet
  facet normal 0 0 -1
    outer loop
      vertex 10.1183 3.71352 0
      vertex -10.1183 3.71352 0
      vertex 10.5365 3.92658 0
    endloop
  endfacet
  facet normal 0 0 -1
    outer loop
      vertex -10.5365 3.92658 0
      vertex 10.5365 3.92658 0
      vertex -10.1183 3.71352 0
    endloop
  endfacet
  facet normal 0 0 -1
    outer loop
      vertex 10.5365 3.92658 0
      vertex -10.5365 3.92658 0
      vertex 14.5 5 0
    endloop
  endfacet
  facet normal 0 0 -1
    outer loop
      vertex -14.5 5 0
      vertex -10.5365 3.92658 0
      vertex -11 4 0
    endloop
  endfacet
  facet normal 0 0 -1
    outer loop
      vertex -14.5 5 0
      vertex -12.5 2.5 0
      vertex -14.5 0 0
    endloop
  endfacet
  facet normal 0 0 -1
    outer loop
      vertex -12.5 2.5 0
      vertex -14.5 5 0
      vertex -12.4266 2.96352 0
    endloop
  endfacet
  facet normal 0 0 -1
    outer loop
      vertex -10.5365 3.92658 0
      vertex -14.5 5 0
      vertex 14.5 5 0
    endloop
  endfacet
  facet normal 0 0 -1
    outer loop
      vertex -11.4635 3.92658 0
      vertex -14.5 5 0
      vertex -11 4 0
    endloop
  endfacet
  facet normal 0 0 -1
    outer loop
      vertex -11.8817 3.71352 0
      vertex -14.5 5 0
      vertex -11.4635 3.92658 0
    endloop
  endfacet
  facet normal 0 0 -1
    outer loop
      vertex -12.2135 3.38168 0
      vertex -14.5 5 0
      vertex -11.8817 3.71352 0
    endloop
  endfacet
  facet normal 0 0 -1
    outer loop
      vertex -12.4266 2.96352 0
      vertex -14.5 5 0
      vertex -12.2135 3.38168 0
    endloop
  endfacet
  facet normal 0 -1 0
    outer loop
      vertex -14.5 0 0
      vertex -7.5 0 3
      vertex -14.5 0 3
    endloop
  endfacet
  facet normal 0 -1 -0
    outer loop
      vertex -7.5 0 3
      vertex -14.5 0 0
      vertex 7.5 0 3
    endloop
  endfacet
  facet normal 0 -1 0
    outer loop
      vertex 14.5 0 0
      vertex 7.5 0 3
      vertex -14.5 0 0
    endloop
  endfacet
  facet normal 0 -1 0
    outer loop
      vertex 7.5 0 3
      vertex 14.5 0 0
      vertex 14.5 0 3
    endloop
  endfacet
  facet normal 0 -1 0
    outer loop
      vertex -7.5 0 55
      vertex -2.5 0 47
      vertex 7.5 0 55
    endloop
  endfacet
  facet normal 0 -1 0
    outer loop
      vertex -7.5 0 55
      vertex -2.5 0 37
      vertex -2.5 0 47
    endloop
  endfacet
  facet normal 0 -1 -0
    outer loop
      vertex -2.5 0 37
      vertex -7.5 0 3
      vertex 2.5 0 37
    endloop
  endfacet
  facet normal 0 -1 0
    outer loop
      vertex -7.5 0 3
      vertex -2.5 0 37
      vertex -7.5 0 55
    endloop
  endfacet
  facet normal 0 -1 0
    outer loop
      vertex 2.5 0 47
      vertex 7.5 0 55
      vertex -2.5 0 47
    endloop
  endfacet
  facet normal 0 -1 0
    outer loop
      vertex 2.5 0 37
      vertex 7.5 0 55
      vertex 2.5 0 47
    endloop
  endfacet
  facet normal 0 -1 0
    outer loop
      vertex 2.5 0 37
      vertex 7.5 0 3
      vertex 7.5 0 55
    endloop
  endfacet
  facet normal 0 -1 0
    outer loop
      vertex 7.5 0 3
      vertex 2.5 0 37
      vertex -7.5 0 3
    endloop
  endfacet
  facet normal -1 0 0
    outer loop
      vertex -7.5 0 3
      vertex -7.5 5 55
      vertex -7.5 5 3
    endloop
  endfacet
  facet normal -1 -0 0
    outer loop
      vertex -7.5 5 55
      vertex -7.5 0 3
      vertex -7.5 0 55
    endloop
  endfacet
  facet normal -0 0 1
    outer loop
      vertex -7.5 5 55
      vertex 7.5 0 55
      vertex 7.5 5 55
    endloop
  endfacet
  facet normal 0 0 1
    outer loop
      vertex 7.5 0 55
      vertex -7.5 5 55
      vertex -7.5 0 55
    endloop
  endfacet
  facet normal 1 -0 0
    outer loop
      vertex 7.5 0 55
      vertex 7.5 5 3
      vertex 7.5 5 55
    endloop
  endfacet
  facet normal 1 0 0
    outer loop
      vertex 7.5 5 3
      vertex 7.5 0 55
      vertex 7.5 0 3
    endloop
  endfacet
  facet normal -0.987693 -0.156405 0
    outer loop
      vertex 12.5 2.5 0
      vertex 12.4266 2.96352 3
      vertex 12.4266 2.96352 0
    endloop
  endfacet
  facet normal -0.987693 -0.156405 0
    outer loop
      vertex 12.4266 2.96352 3
      vertex 12.5 2.5 0
      vertex 12.5 2.5 3
    endloop
  endfacet
  facet normal -0.453951 -0.891027 0
    outer loop
      vertex 11.4635 3.92658 0
      vertex 11.8817 3.71352 3
      vertex 11.4635 3.92658 3
    endloop
  endfacet
  facet normal -0.453951 -0.891027 -0
    outer loop
      vertex 11.8817 3.71352 3
      vertex 11.4635 3.92658 0
      vertex 11.8817 3.71352 0
    endloop
  endfacet
  facet normal 0.156432 0.987689 -0
    outer loop
      vertex 11 1 0
      vertex 10.5365 1.07341 3
      vertex 11 1 3
    endloop
  endfacet
  facet normal 0.156432 0.987689 0
    outer loop
      vertex 10.5365 1.07341 3
      vertex 11 1 0
      vertex 10.5365 1.07341 0
    endloop
  endfacet
  facet normal -0.707149 -0.707064 0
    outer loop
      vertex 12.2135 3.38168 0
      vertex 11.8817 3.71352 3
      vertex 11.8817 3.71352 0
    endloop
  endfacet
  facet normal -0.707149 -0.707064 0
    outer loop
      vertex 11.8817 3.71352 3
      vertex 12.2135 3.38168 0
      vertex 12.2135 3.38168 3
    endloop
  endfacet
  facet normal -0.890975 -0.454053 0
    outer loop
      vertex 12.4266 2.96352 0
      vertex 12.2135 3.38168 3
      vertex 12.2135 3.38168 0
    endloop
  endfacet
  facet normal -0.890975 -0.454053 0
    outer loop
      vertex 12.2135 3.38168 3
      vertex 12.4266 2.96352 0
      vertex 12.4266 2.96352 3
    endloop
  endfacet
  facet normal 0.156453 -0.987685 0
    outer loop
      vertex 10.5365 3.92658 0
      vertex 11 4 3
      vertex 10.5365 3.92658 3
    endloop
  endfacet
  facet normal 0.156453 -0.987685 0
    outer loop
      vertex 11 4 3
      vertex 10.5365 3.92658 0
      vertex 11 4 0
    endloop
  endfacet
  facet normal 0.453951 -0.891027 0
    outer loop
      vertex 10.1183 3.71352 0
      vertex 10.5365 3.92658 3
      vertex 10.1183 3.71352 3
    endloop
  endfacet
  facet normal 0.453951 -0.891027 0
    outer loop
      vertex 10.5365 3.92658 3
      vertex 10.1183 3.71352 0
      vertex 10.5365 3.92658 0
    endloop
  endfacet
  facet normal 0.707117 -0.707096 0
    outer loop
      vertex 9.78647 3.38168 3
      vertex 10.1183 3.71352 0
      vertex 10.1183 3.71352 3
    endloop
  endfacet
  facet normal 0.707117 -0.707096 0
    outer loop
      vertex 10.1183 3.71352 0
      vertex 9.78647 3.38168 3
      vertex 9.78647 3.38168 0
    endloop
  endfacet
  facet normal -0.453951 0.891027 0
    outer loop
      vertex 11.8817 1.28647 0
      vertex 11.4635 1.07341 3
      vertex 11.8817 1.28647 3
    endloop
  endfacet
  facet normal -0.453951 0.891027 0
    outer loop
      vertex 11.4635 1.07341 3
      vertex 11.8817 1.28647 0
      vertex 11.4635 1.07341 0
    endloop
  endfacet
  facet normal -0.70716 0.707054 0
    outer loop
      vertex 11.8817 1.28647 0
      vertex 12.2135 1.61832 3
      vertex 12.2135 1.61832 0
    endloop
  endfacet
  facet normal -0.70716 0.707054 0
    outer loop
      vertex 12.2135 1.61832 3
      vertex 11.8817 1.28647 0
      vertex 11.8817 1.28647 3
    endloop
  endfacet
  facet normal 0.891005 0.453994 0
    outer loop
      vertex 9.78647 1.61832 3
      vertex 9.57341 2.03647 0
      vertex 9.57341 2.03647 3
    endloop
  endfacet
  facet normal 0.891005 0.453994 0
    outer loop
      vertex 9.57341 2.03647 0
      vertex 9.78647 1.61832 3
      vertex 9.78647 1.61832 0
    endloop
  endfacet
  facet normal 0.453951 0.891027 -0
    outer loop
      vertex 10.5365 1.07341 0
      vertex 10.1183 1.28647 3
      vertex 10.5365 1.07341 3
    endloop
  endfacet
  facet normal 0.453951 0.891027 0
    outer loop
      vertex 10.1183 1.28647 3
      vertex 10.5365 1.07341 0
      vertex 10.1183 1.28647 0
    endloop
  endfacet
  facet normal 0.707128 0.707085 0
    outer loop
      vertex 10.1183 1.28647 3
      vertex 9.78647 1.61832 0
      vertex 9.78647 1.61832 3
    endloop
  endfacet
  facet normal 0.707128 0.707085 0
    outer loop
      vertex 9.78647 1.61832 0
      vertex 10.1183 1.28647 3
      vertex 10.1183 1.28647 0
    endloop
  endfacet
  facet normal -0.156453 -0.987685 0
    outer loop
      vertex 11 4 0
      vertex 11.4635 3.92658 3
      vertex 11 4 3
    endloop
  endfacet
  facet normal -0.156453 -0.987685 -0
    outer loop
      vertex 11.4635 3.92658 3
      vertex 11 4 0
      vertex 11.4635 3.92658 0
    endloop
  endfacet
  facet normal 0.98769 0.156422 0
    outer loop
      vertex 9.57341 2.03647 3
      vertex 9.5 2.5 0
      vertex 9.5 2.5 3
    endloop
  endfacet
  facet normal 0.98769 0.156422 0
    outer loop
      vertex 9.5 2.5 0
      vertex 9.57341 2.03647 3
      vertex 9.57341 2.03647 0
    endloop
  endfacet
  facet normal 0.891009 -0.453985 0
    outer loop
      vertex 9.57341 2.96352 3
      vertex 9.78647 3.38168 0
      vertex 9.78647 3.38168 3
    endloop
  endfacet
  facet normal 0.891009 -0.453985 0
    outer loop
      vertex 9.78647 3.38168 0
      vertex 9.57341 2.96352 3
      vertex 9.57341 2.96352 0
    endloop
  endfacet
  facet normal -0.89097 0.454061 0
    outer loop
      vertex 12.2135 1.61832 0
      vertex 12.4266 2.03647 3
      vertex 12.4266 2.03647 0
    endloop
  endfacet
  facet normal -0.89097 0.454061 0
    outer loop
      vertex 12.4266 2.03647 3
      vertex 12.2135 1.61832 0
      vertex 12.2135 1.61832 3
    endloop
  endfacet
  facet normal -0.156432 0.987689 0
    outer loop
      vertex 11.4635 1.07341 0
      vertex 11 1 3
      vertex 11.4635 1.07341 3
    endloop
  endfacet
  facet normal -0.156432 0.987689 0
    outer loop
      vertex 11 1 3
      vertex 11.4635 1.07341 0
      vertex 11 1 0
    endloop
  endfacet
  facet normal 0.98769 -0.156425 0
    outer loop
      vertex 9.5 2.5 3
      vertex 9.57341 2.96352 0
      vertex 9.57341 2.96352 3
    endloop
  endfacet
  facet normal 0.98769 -0.156425 0
    outer loop
      vertex 9.57341 2.96352 0
      vertex 9.5 2.5 3
      vertex 9.5 2.5 0
    endloop
  endfacet
  facet normal -0.987694 0.156401 0
    outer loop
      vertex 12.4266 2.03647 0
      vertex 12.5 2.5 3
      vertex 12.5 2.5 0
    endloop
  endfacet
  facet normal -0.987694 0.156401 0
    outer loop
      vertex 12.5 2.5 3
      vertex 12.4266 2.03647 0
      vertex 12.4266 2.03647 3
    endloop
  endfacet
  facet normal -0.156453 -0.987685 0
    outer loop
      vertex -11 4 0
      vertex -10.5365 3.92658 3
      vertex -11 4 3
    endloop
  endfacet
  facet normal -0.156453 -0.987685 -0
    outer loop
      vertex -10.5365 3.92658 3
      vertex -11 4 0
      vertex -10.5365 3.92658 0
    endloop
  endfacet
  facet normal 0.890975 -0.454053 0
    outer loop
      vertex -12.4266 2.96352 3
      vertex -12.2135 3.38168 0
      vertex -12.2135 3.38168 3
    endloop
  endfacet
  facet normal 0.890975 -0.454053 0
    outer loop
      vertex -12.2135 3.38168 0
      vertex -12.4266 2.96352 3
      vertex -12.4266 2.96352 0
    endloop
  endfacet
  facet normal -0.98769 0.156422 0
    outer loop
      vertex -9.57341 2.03647 0
      vertex -9.5 2.5 3
      vertex -9.5 2.5 0
    endloop
  endfacet
  facet normal -0.98769 0.156422 0
    outer loop
      vertex -9.5 2.5 3
      vertex -9.57341 2.03647 0
      vertex -9.57341 2.03647 3
    endloop
  endfacet
  facet normal -0.707117 -0.707096 0
    outer loop
      vertex -9.78647 3.38168 0
      vertex -10.1183 3.71352 3
      vertex -10.1183 3.71352 0
    endloop
  endfacet
  facet normal -0.707117 -0.707096 0
    outer loop
      vertex -10.1183 3.71352 3
      vertex -9.78647 3.38168 0
      vertex -9.78647 3.38168 3
    endloop
  endfacet
  facet normal -0.891009 -0.453985 0
    outer loop
      vertex -9.57341 2.96352 0
      vertex -9.78647 3.38168 3
      vertex -9.78647 3.38168 0
    endloop
  endfacet
  facet normal -0.891009 -0.453985 0
    outer loop
      vertex -9.78647 3.38168 3
      vertex -9.57341 2.96352 0
      vertex -9.57341 2.96352 3
    endloop
  endfacet
  facet normal -0.453951 -0.891027 0
    outer loop
      vertex -10.5365 3.92658 0
      vertex -10.1183 3.71352 3
      vertex -10.5365 3.92658 3
    endloop
  endfacet
  facet normal -0.453951 -0.891027 -0
    outer loop
      vertex -10.1183 3.71352 3
      vertex -10.5365 3.92658 0
      vertex -10.1183 3.71352 0
    endloop
  endfacet
  facet normal 0.156453 -0.987685 0
    outer loop
      vertex -11.4635 3.92658 0
      vertex -11 4 3
      vertex -11.4635 3.92658 3
    endloop
  endfacet
  facet normal 0.156453 -0.987685 0
    outer loop
      vertex -11 4 3
      vertex -11.4635 3.92658 0
      vertex -11 4 0
    endloop
  endfacet
  facet normal 0.453951 -0.891027 0
    outer loop
      vertex -11.8817 3.71352 0
      vertex -11.4635 3.92658 3
      vertex -11.8817 3.71352 3
    endloop
  endfacet
  facet normal 0.453951 -0.891027 0
    outer loop
      vertex -11.4635 3.92658 3
      vertex -11.8817 3.71352 0
      vertex -11.4635 3.92658 0
    endloop
  endfacet
  facet normal 0.987693 -0.156405 0
    outer loop
      vertex -12.5 2.5 3
      vertex -12.4266 2.96352 0
      vertex -12.4266 2.96352 3
    endloop
  endfacet
  facet normal 0.987693 -0.156405 0
    outer loop
      vertex -12.4266 2.96352 0
      vertex -12.5 2.5 3
      vertex -12.5 2.5 0
    endloop
  endfacet
  facet normal 0.707149 -0.707064 0
    outer loop
      vertex -12.2135 3.38168 3
      vertex -11.8817 3.71352 0
      vertex -11.8817 3.71352 3
    endloop
  endfacet
  facet normal 0.707149 -0.707064 0
    outer loop
      vertex -11.8817 3.71352 0
      vertex -12.2135 3.38168 3
      vertex -12.2135 3.38168 0
    endloop
  endfacet
  facet normal -0.98769 -0.156425 0
    outer loop
      vertex -9.5 2.5 0
      vertex -9.57341 2.96352 3
      vertex -9.57341 2.96352 0
    endloop
  endfacet
  facet normal -0.98769 -0.156425 0
    outer loop
      vertex -9.57341 2.96352 3
      vertex -9.5 2.5 0
      vertex -9.5 2.5 3
    endloop
  endfacet
  facet normal 0.987694 0.156401 0
    outer loop
      vertex -12.4266 2.03647 3
      vertex -12.5 2.5 0
      vertex -12.5 2.5 3
    endloop
  endfacet
  facet normal 0.987694 0.156401 0
    outer loop
      vertex -12.5 2.5 0
      vertex -12.4266 2.03647 3
      vertex -12.4266 2.03647 0
    endloop
  endfacet
  facet normal -0.453951 0.891027 0
    outer loop
      vertex -10.1183 1.28647 0
      vertex -10.5365 1.07341 3
      vertex -10.1183 1.28647 3
    endloop
  endfacet
  facet normal -0.453951 0.891027 0
    outer loop
      vertex -10.5365 1.07341 3
      vertex -10.1183 1.28647 0
      vertex -10.5365 1.07341 0
    endloop
  endfacet
  facet normal -0.707128 0.707085 0
    outer loop
      vertex -10.1183 1.28647 0
      vertex -9.78647 1.61832 3
      vertex -9.78647 1.61832 0
    endloop
  endfacet
  facet normal -0.707128 0.707085 0
    outer loop
      vertex -9.78647 1.61832 3
      vertex -10.1183 1.28647 0
      vertex -10.1183 1.28647 3
    endloop
  endfacet
  facet normal 0.70716 0.707054 0
    outer loop
      vertex -11.8817 1.28647 3
      vertex -12.2135 1.61832 0
      vertex -12.2135 1.61832 3
    endloop
  endfacet
  facet normal 0.70716 0.707054 0
    outer loop
      vertex -12.2135 1.61832 0
      vertex -11.8817 1.28647 3
      vertex -11.8817 1.28647 0
    endloop
  endfacet
  facet normal -0.891005 0.453994 0
    outer loop
      vertex -9.78647 1.61832 0
      vertex -9.57341 2.03647 3
      vertex -9.57341 2.03647 0
    endloop
  endfacet
  facet normal -0.891005 0.453994 0
    outer loop
      vertex -9.57341 2.03647 3
      vertex -9.78647 1.61832 0
      vertex -9.78647 1.61832 3
    endloop
  endfacet
  facet normal 0.89097 0.454061 0
    outer loop
      vertex -12.2135 1.61832 3
      vertex -12.4266 2.03647 0
      vertex -12.4266 2.03647 3
    endloop
  endfacet
  facet normal 0.89097 0.454061 0
    outer loop
      vertex -12.4266 2.03647 0
      vertex -12.2135 1.61832 3
      vertex -12.2135 1.61832 0
    endloop
  endfacet
  facet normal -0.156432 0.987689 0
    outer loop
      vertex -10.5365 1.07341 0
      vertex -11 1 3
      vertex -10.5365 1.07341 3
    endloop
  endfacet
  facet normal -0.156432 0.987689 0
    outer loop
      vertex -11 1 3
      vertex -10.5365 1.07341 0
      vertex -11 1 0
    endloop
  endfacet
  facet normal 0.156432 0.987689 -0
    outer loop
      vertex -11 1 0
      vertex -11.4635 1.07341 3
      vertex -11 1 3
    endloop
  endfacet
  facet normal 0.156432 0.987689 0
    outer loop
      vertex -11.4635 1.07341 3
      vertex -11 1 0
      vertex -11.4635 1.07341 0
    endloop
  endfacet
  facet normal 0.453951 0.891027 -0
    outer loop
      vertex -11.4635 1.07341 0
      vertex -11.8817 1.28647 3
      vertex -11.4635 1.07341 3
    endloop
  endfacet
  facet normal 0.453951 0.891027 0
    outer loop
      vertex -11.8817 1.28647 3
      vertex -11.4635 1.07341 0
      vertex -11.8817 1.28647 0
    endloop
  endfacet
  facet normal -0.987687 0 0.156444
    outer loop
      vertex 2.37764 1.99 38.7275
      vertex 2.5 5 39.5
      vertex 2.37764 5 38.7275
    endloop
  endfacet
  facet normal -0.987687 0 0.156444
    outer loop
      vertex 2.5 5 39.5
      vertex 2.37764 1.99 38.7275
      vertex 2.5 1.99 39.5
    endloop
  endfacet
  facet normal 0.987687 -0 0.156444
    outer loop
      vertex -2.5 1.99 39.5
      vertex -2.37764 5 38.7275
      vertex -2.5 5 39.5
    endloop
  endfacet
  facet normal 0.987687 0 0.156444
    outer loop
      vertex -2.37764 5 38.7275
      vertex -2.5 1.99 39.5
      vertex -2.37764 1.99 38.7275
    endloop
  endfacet
  facet normal -0.453993 0 0.891005
    outer loop
      vertex 0.772542 5 37.1224
      vertex 1.46946 1.99 37.4775
      vertex 1.46946 5 37.4775
    endloop
  endfacet
  facet normal -0.453993 0 0.891005
    outer loop
      vertex 1.46946 1.99 37.4775
      vertex 0.772542 5 37.1224
      vertex 0.772542 1.99 37.1224
    endloop
  endfacet
  facet normal 0.453993 0 -0.891005
    outer loop
      vertex -1.46946 1.99 41.5225
      vertex -0.772542 5 41.8776
      vertex -0.772542 1.99 41.8776
    endloop
  endfacet
  facet normal 0.453993 0 -0.891005
    outer loop
      vertex -0.772542 5 41.8776
      vertex -1.46946 1.99 41.5225
      vertex -1.46946 5 41.5225
    endloop
  endfacet
  facet normal -0.707056 0 0.707158
    outer loop
      vertex 1.46946 1.99 37.4775
      vertex 2.02254 5 38.0305
      vertex 1.46946 5 37.4775
    endloop
  endfacet
  facet normal -0.707056 0 0.707158
    outer loop
      vertex 2.02254 5 38.0305
      vertex 1.46946 1.99 37.4775
      vertex 2.02254 1.99 38.0305
    endloop
  endfacet
  facet normal -0.891027 0 0.453951
    outer loop
      vertex 2.02254 1.99 38.0305
      vertex 2.37764 5 38.7275
      vertex 2.02254 5 38.0305
    endloop
  endfacet
  facet normal -0.891027 0 0.453951
    outer loop
      vertex 2.37764 5 38.7275
      vertex 2.02254 1.99 38.0305
      vertex 2.37764 1.99 38.7275
    endloop
  endfacet
  facet normal 0.453993 0 0.891005
    outer loop
      vertex -1.46946 5 37.4775
      vertex -0.772542 1.99 37.1224
      vertex -0.772542 5 37.1224
    endloop
  endfacet
  facet normal 0.453993 0 0.891005
    outer loop
      vertex -0.772542 1.99 37.1224
      vertex -1.46946 5 37.4775
      vertex -1.46946 1.99 37.4775
    endloop
  endfacet
  facet normal 0.707056 -0 0.707158
    outer loop
      vertex -2.02254 1.99 38.0305
      vertex -1.46946 5 37.4775
      vertex -2.02254 5 38.0305
    endloop
  endfacet
  facet normal 0.707056 0 0.707158
    outer loop
      vertex -1.46946 5 37.4775
      vertex -2.02254 1.99 38.0305
      vertex -1.46946 1.99 37.4775
    endloop
  endfacet
  facet normal -0.707056 0 -0.707158
    outer loop
      vertex 1.46946 1.99 41.5225
      vertex 2.02254 5 40.9695
      vertex 2.02254 1.99 40.9695
    endloop
  endfacet
  facet normal -0.707056 0 -0.707158
    outer loop
      vertex 2.02254 5 40.9695
      vertex 1.46946 1.99 41.5225
      vertex 1.46946 5 41.5225
    endloop
  endfacet
  facet normal 0.987687 0 -0.156444
    outer loop
      vertex -2.37764 1.99 40.2725
      vertex -2.5 5 39.5
      vertex -2.37764 5 40.2725
    endloop
  endfacet
  facet normal 0.987687 0 -0.156444
    outer loop
      vertex -2.5 5 39.5
      vertex -2.37764 1.99 40.2725
      vertex -2.5 1.99 39.5
    endloop
  endfacet
  facet normal 0.707056 0 -0.707158
    outer loop
      vertex -2.02254 1.99 40.9695
      vertex -1.46946 5 41.5225
      vertex -1.46946 1.99 41.5225
    endloop
  endfacet
  facet normal 0.707056 0 -0.707158
    outer loop
      vertex -1.46946 5 41.5225
      vertex -2.02254 1.99 40.9695
      vertex -2.02254 5 40.9695
    endloop
  endfacet
  facet normal 0.891027 0 -0.453951
    outer loop
      vertex -2.02254 1.99 40.9695
      vertex -2.37764 5 40.2725
      vertex -2.02254 5 40.9695
    endloop
  endfacet
  facet normal 0.891027 0 -0.453951
    outer loop
      vertex -2.37764 5 40.2725
      vertex -2.02254 1.99 40.9695
      vertex -2.37764 1.99 40.2725
    endloop
  endfacet
  facet normal 0.156486 0 0.98768
    outer loop
      vertex -0.772542 5 37.1224
      vertex 0 1.99 37
      vertex 0 5 37
    endloop
  endfacet
  facet normal 0.156486 0 0.98768
    outer loop
      vertex 0 1.99 37
      vertex -0.772542 5 37.1224
      vertex -0.772542 1.99 37.1224
    endloop
  endfacet
  facet normal 0.891027 -0 0.453951
    outer loop
      vertex -2.37764 1.99 38.7275
      vertex -2.02254 5 38.0305
      vertex -2.37764 5 38.7275
    endloop
  endfacet
  facet normal 0.891027 0 0.453951
    outer loop
      vertex -2.02254 5 38.0305
      vertex -2.37764 1.99 38.7275
      vertex -2.02254 1.99 38.0305
    endloop
  endfacet
  facet normal -0.891027 0 -0.453951
    outer loop
      vertex 2.37764 1.99 40.2725
      vertex 2.02254 5 40.9695
      vertex 2.37764 5 40.2725
    endloop
  endfacet
  facet normal -0.891027 -0 -0.453951
    outer loop
      vertex 2.02254 5 40.9695
      vertex 2.37764 1.99 40.2725
      vertex 2.02254 1.99 40.9695
    endloop
  endfacet
  facet normal -0.156486 0 -0.98768
    outer loop
      vertex 0 1.99 42
      vertex 0.772542 5 41.8776
      vertex 0.772542 1.99 41.8776
    endloop
  endfacet
  facet normal -0.156486 0 -0.98768
    outer loop
      vertex 0.772542 5 41.8776
      vertex 0 1.99 42
      vertex 0 5 42
    endloop
  endfacet
  facet normal -0.453993 0 -0.891005
    outer loop
      vertex 0.772542 1.99 41.8776
      vertex 1.46946 5 41.5225
      vertex 1.46946 1.99 41.5225
    endloop
  endfacet
  facet normal -0.453993 0 -0.891005
    outer loop
      vertex 1.46946 5 41.5225
      vertex 0.772542 1.99 41.8776
      vertex 0.772542 5 41.8776
    endloop
  endfacet
  facet normal 0.156486 0 -0.98768
    outer loop
      vertex -0.772542 1.99 41.8776
      vertex 0 5 42
      vertex 0 1.99 42
    endloop
  endfacet
  facet normal 0.156486 0 -0.98768
    outer loop
      vertex 0 5 42
      vertex -0.772542 1.99 41.8776
      vertex -0.772542 5 41.8776
    endloop
  endfacet
  facet normal -0.156486 0 0.98768
    outer loop
      vertex 0 5 37
      vertex 0.772542 1.99 37.1224
      vertex 0.772542 5 37.1224
    endloop
  endfacet
  facet normal -0.156486 0 0.98768
    outer loop
      vertex 0.772542 1.99 37.1224
      vertex 0 5 37
      vertex 0 1.99 37
    endloop
  endfacet
  facet normal -0.987687 0 -0.156444
    outer loop
      vertex 2.5 1.99 39.5
      vertex 2.37764 5 40.2725
      vertex 2.5 5 39.5
    endloop
  endfacet
  facet normal -0.987687 -0 -0.156444
    outer loop
      vertex 2.37764 5 40.2725
      vertex 2.5 1.99 39.5
      vertex 2.37764 1.99 40.2725
    endloop
  endfacet
  facet normal 1 -0 0
    outer loop
      vertex -2.5 0 47
      vertex -2.5 1.99 39.5
      vertex -2.5 1.99 47
    endloop
  endfacet
  facet normal 1 0 0
    outer loop
      vertex -2.5 0 37
      vertex -2.5 1.99 39.5
      vertex -2.5 0 47
    endloop
  endfacet
  facet normal 1 0 0
    outer loop
      vertex -2.5 1.99 39.5
      vertex -2.5 0 37
      vertex -2.5 1.99 37
    endloop
  endfacet
  facet normal 0 0 -1
    outer loop
      vertex -2.5 0 47
      vertex 2.5 1.99 47
      vertex 2.5 0 47
    endloop
  endfacet
  facet normal -0 0 -1
    outer loop
      vertex 2.5 1.99 47
      vertex -2.5 0 47
      vertex -2.5 1.99 47
    endloop
  endfacet
  facet normal -1 0 0
    outer loop
      vertex 2.5 0 37
      vertex 2.5 1.99 39.5
      vertex 2.5 1.99 37
    endloop
  endfacet
  facet normal -1 0 0
    outer loop
      vertex 2.5 0 47
      vertex 2.5 1.99 39.5
      vertex 2.5 0 37
    endloop
  endfacet
  facet normal -1 0 0
    outer loop
      vertex 2.5 1.99 39.5
      vertex 2.5 0 47
      vertex 2.5 1.99 47
    endloop
  endfacet
  facet normal 0 -1 0
    outer loop
      vertex 2.37764 1.99 38.7275
      vertex 2.5 1.99 37
      vertex 2.5 1.99 39.5
    endloop
  endfacet
  facet normal 0 -1 0
    outer loop
      vertex 2.02254 1.99 38.0305
      vertex 2.5 1.99 37
      vertex 2.37764 1.99 38.7275
    endloop
  endfacet
  facet normal 0 -1 0
    outer loop
      vertex 1.46946 1.99 37.4775
      vertex 2.5 1.99 37
      vertex 2.02254 1.99 38.0305
    endloop
  endfacet
  facet normal 0 -1 0
    outer loop
      vertex 0.772542 1.99 37.1224
      vertex 2.5 1.99 37
      vertex 1.46946 1.99 37.4775
    endloop
  endfacet
  facet normal 0 -1 0
    outer loop
      vertex 2.5 1.99 37
      vertex 0.772542 1.99 37.1224
      vertex 0 1.99 37
    endloop
  endfacet
  facet normal 0 -1 0
    outer loop
      vertex -2.5 1.99 47
      vertex 0 1.99 42
      vertex 2.5 1.99 47
    endloop
  endfacet
  facet normal 0 -1 0
    outer loop
      vertex -2.5 1.99 47
      vertex -0.772542 1.99 41.8776
      vertex 0 1.99 42
    endloop
  endfacet
  facet normal 0 -1 0
    outer loop
      vertex -2.5 1.99 47
      vertex -1.46946 1.99 41.5225
      vertex -0.772542 1.99 41.8776
    endloop
  endfacet
  facet normal 0 -1 0
    outer loop
      vertex -2.5 1.99 47
      vertex -2.02254 1.99 40.9695
      vertex -1.46946 1.99 41.5225
    endloop
  endfacet
  facet normal 0 -1 0
    outer loop
      vertex -2.5 1.99 47
      vertex -2.37764 1.99 40.2725
      vertex -2.02254 1.99 40.9695
    endloop
  endfacet
  facet normal -0 -1 0
    outer loop
      vertex -2.37764 1.99 40.2725
      vertex -2.5 1.99 47
      vertex -2.5 1.99 39.5
    endloop
  endfacet
  facet normal 0 -1 0
    outer loop
      vertex 0.772542 1.99 41.8776
      vertex 2.5 1.99 47
      vertex 0 1.99 42
    endloop
  endfacet
  facet normal 0 -1 0
    outer loop
      vertex 1.46946 1.99 41.5225
      vertex 2.5 1.99 47
      vertex 0.772542 1.99 41.8776
    endloop
  endfacet
  facet normal 0 -1 0
    outer loop
      vertex 2.02254 1.99 40.9695
      vertex 2.5 1.99 47
      vertex 1.46946 1.99 41.5225
    endloop
  endfacet
  facet normal 0 -1 0
    outer loop
      vertex 2.37764 1.99 40.2725
      vertex 2.5 1.99 47
      vertex 2.02254 1.99 40.9695
    endloop
  endfacet
  facet normal 0 -1 -0
    outer loop
      vertex 2.5 1.99 47
      vertex 2.37764 1.99 40.2725
      vertex 2.5 1.99 39.5
    endloop
  endfacet
  facet normal 0 -1 0
    outer loop
      vertex -2.5 1.99 37
      vertex -2.37764 1.99 38.7275
      vertex -2.5 1.99 39.5
    endloop
  endfacet
  facet normal 0 -1 0
    outer loop
      vertex -2.5 1.99 37
      vertex -2.02254 1.99 38.0305
      vertex -2.37764 1.99 38.7275
    endloop
  endfacet
  facet normal 0 -1 0
    outer loop
      vertex -2.5 1.99 37
      vertex -1.46946 1.99 37.4775
      vertex -2.02254 1.99 38.0305
    endloop
  endfacet
  facet normal 0 -1 0
    outer loop
      vertex -2.5 1.99 37
      vertex -0.772542 1.99 37.1224
      vertex -1.46946 1.99 37.4775
    endloop
  endfacet
  facet normal 0 -1 -0
    outer loop
      vertex -0.772542 1.99 37.1224
      vertex -2.5 1.99 37
      vertex 0 1.99 37
    endloop
  endfacet
  facet normal -0 0 1
    outer loop
      vertex 0 1.99 37
      vertex 2.5 0 37
      vertex 2.5 1.99 37
    endloop
  endfacet
  facet normal 0 0 1
    outer loop
      vertex -2.5 0 37
      vertex 0 1.99 37
      vertex -2.5 1.99 37
    endloop
  endfacet
  facet normal 0 0 1
    outer loop
      vertex 0 1.99 37
      vertex -2.5 0 37
      vertex 2.5 0 37
    endloop
  endfacet
endsolid OpenSCAD_Model
